<?xml version="1.0" encoding="UTF-8"?>
<svg xmlns="http://www.w3.org/2000/svg" viewBox="0 0 1024 1024" width="1024" height="1024">
  <!-- Spiral Buddy icon: restrained study palette + open spiral -->
  <defs>
    <linearGradient id="bg" x1="0%" y1="0%" x2="100%" y2="100%">
      <stop offset="0%" stop-color="#253246"/>
      <stop offset="52%" stop-color="#1b2232"/>
      <stop offset="100%" stop-color="#111722"/>
    </linearGradient>
    <radialGradient id="glow" cx="58%" cy="62%" r="62%">
      <stop offset="0%"  stop-color="#d8a46f" stop-opacity="0.2"/>
      <stop offset="42%" stop-color="#b77b63" stop-opacity="0.09"/>
      <stop offset="100%" stop-color="#b77b63" stop-opacity="0"/>
    </radialGradient>
    <radialGradient id="coolGlow" cx="32%" cy="24%" r="62%">
      <stop offset="0%" stop-color="#9fb6c8" stop-opacity="0.11"/>
      <stop offset="60%" stop-color="#9fb6c8" stop-opacity="0.025"/>
      <stop offset="100%" stop-color="#9fb6c8" stop-opacity="0"/>
    </radialGradient>
    <linearGradient id="rim" x1="0%" y1="0%" x2="0%" y2="100%">
      <stop offset="0%"  stop-color="#ffffff" stop-opacity="0.16"/>
      <stop offset="40%" stop-color="#ffffff" stop-opacity="0"/>
    </linearGradient>
    <linearGradient id="spiralStroke" x1="18%" y1="4%" x2="83%" y2="96%">
      <stop offset="0%"   stop-color="#a9bfce"/>
      <stop offset="44%"  stop-color="#c0b4d8"/>
      <stop offset="72%"  stop-color="#d9b98f"/>
      <stop offset="100%" stop-color="#c68463"/>
    </linearGradient>
    <filter id="spiralGlow" x="-20%" y="-20%" width="140%" height="140%">
      <feGaussianBlur in="SourceGraphic" stdDeviation="3.5" result="blur"/>
      <feMerge>
        <feMergeNode in="blur"/>
        <feMergeNode in="SourceGraphic"/>
      </feMerge>
    </filter>
  </defs>

  <!-- macOS squircle 근사 (rounded square) -->
  <rect x="0" y="0" width="1024" height="1024" rx="220" ry="220" fill="url(#bg)"/>
  <rect x="0" y="0" width="1024" height="1024" rx="220" ry="220" fill="url(#rim)"/>
  <circle cx="550" cy="584" r="460" fill="url(#glow)"/>
  <circle cx="394" cy="374" r="340" fill="url(#coolGlow)"/>
  <path d="M 242 264 C 348 154 536 112 684 174 C 786 217 846 306 862 414"
        stroke="#ffffff"
        stroke-width="12"
        stroke-linecap="round"
        fill="none"
        opacity="0.045"/>

  <!-- open spiral (archimedean, 2턴) -->
  <path d="M 515.40 455.78 L 517.42 455.36 L 519.46 455.01 L 521.54 454.74 L 523.65 454.54 L 525.78 454.42 L 527.94 454.38 L 530.11 454.42 L 532.30 454.54 L 534.51 454.75 L 536.72 455.04 L 538.94 455.42 L 541.17 455.88 L 543.39 456.43 L 545.61 457.06 L 547.83 457.79 L 550.03 458.60 L 552.23 459.50 L 554.40 460.49 L 556.55 461.57 L 558.68 462.74 L 560.79 463.99 L 562.86 465.33 L 564.89 466.76 L 566.89 468.28 L 568.85 469.87 L 570.76 471.56 L 572.62 473.32 L 574.43 475.17 L 576.19 477.09 L 577.88 479.10 L 579.52 481.18 L 581.08 483.33 L 582.58 485.56 L 584.01 487.85 L 585.36 490.22 L 586.64 492.64 L 587.83 495.14 L 588.94 497.69 L 589.97 500.29 L 590.90 502.96 L 591.74 505.67 L 592.49 508.43 L 593.15 511.24 L 593.70 514.08 L 594.15 516.97 L 594.51 519.89 L 594.75 522.84 L 594.89 525.81 L 594.93 528.81 L 594.85 531.83 L 594.66 534.87 L 594.37 537.91 L 593.96 540.96 L 593.43 544.01 L 592.80 547.07 L 592.04 550.11 L 591.18 553.15 L 590.20 556.17 L 589.10 559.18 L 587.89 562.16 L 586.56 565.11 L 585.12 568.03 L 583.57 570.91 L 581.90 573.76 L 580.12 576.56 L 578.23 579.31 L 576.23 582.00 L 574.13 584.64 L 571.91 587.22 L 569.60 589.73 L 567.17 592.16 L 564.65 594.53 L 562.04 596.81 L 559.32 599.01 L 556.51 601.13 L 553.62 603.15 L 550.63 605.08 L 547.56 606.92 L 544.41 608.65 L 541.18 610.27 L 537.88 611.79 L 534.51 613.20 L 531.07 614.49 L 527.56 615.66 L 524.00 616.72 L 520.39 617.65 L 516.72 618.45 L 513.01 619.13 L 509.25 619.68 L 505.46 620.09 L 501.64 620.37 L 497.79 620.52 L 493.91 620.52 L 490.02 620.39 L 486.12 620.12 L 482.21 619.71 L 478.29 619.15 L 474.38 618.46 L 470.48 617.62 L 466.59 616.63 L 462.72 615.51 L 458.87 614.23 L 455.05 612.82 L 451.26 611.26 L 447.52 609.57 L 443.82 607.73 L 440.17 605.75 L 436.57 603.63 L 433.04 601.37 L 429.57 598.98 L 426.17 596.46 L 422.85 593.80 L 419.61 591.01 L 416.46 588.10 L 413.40 585.06 L 410.43 581.91 L 407.57 578.63 L 404.81 575.24 L 402.16 571.73 L 399.62 568.12 L 397.21 564.41 L 394.92 560.59 L 392.75 556.68 L 390.72 552.67 L 388.82 548.58 L 387.06 544.40 L 385.44 540.15 L 383.97 535.82 L 382.64 531.42 L 381.47 526.96 L 380.45 522.44 L 379.59 517.87 L 378.89 513.25 L 378.35 508.59 L 377.97 503.89 L 377.76 499.17 L 377.72 494.41 L 377.85 489.64 L 378.14 484.86 L 378.61 480.07 L 379.25 475.28 L 380.06 470.50 L 381.04 465.73 L 382.20 460.97 L 383.53 456.24 L 385.03 451.55 L 386.71 446.88 L 388.56 442.27 L 390.57 437.70 L 392.76 433.19 L 395.11 428.74 L 397.63 424.36 L 400.31 420.06 L 403.15 415.83 L 406.16 411.69 L 409.32 407.65 L 412.63 403.71 L 416.10 399.86 L 419.71 396.13 L 423.47 392.52 L 427.36 389.03 L 431.39 385.66 L 435.56 382.43 L 439.85 379.33 L 444.27 376.38 L 448.80 373.57 L 453.45 370.92 L 458.21 368.42 L 463.07 366.08 L 468.03 363.91 L 473.08 361.91 L 478.21 360.08 L 483.43 358.42 L 488.72 356.95 L 494.08 355.65 L 499.50 354.55 L 504.98 353.63 L 510.50 352.91 L 516.07 352.37 L 521.68 352.04 L 527.31 351.90 L 532.96 351.96 L 538.63 352.22 L 544.30 352.68 L 549.98 353.34 L 555.65 354.20 L 561.30 355.27 L 566.93 356.54 L 572.54 358.02 L 578.10 359.70 L 583.63 361.57 L 589.10 363.65 L 594.51 365.93 L 599.86 368.41 L 605.14 371.08 L 610.33 373.95 L 615.44 377.00 L 620.46 380.25 L 625.37 383.68 L 630.18 387.30 L 634.87 391.09 L 639.44 395.06 L 643.88 399.21 L 648.19 403.52 L 652.36 408.00 L 656.38 412.63 L 660.24 417.42 L 663.95 422.36 L 667.49 427.44 L 670.87 432.66 L 674.07 438.01 L 677.08 443.49 L 679.91 449.09 L 682.55 454.81 L 685.00 460.63 L 687.25 466.55 L 689.29 472.57 L 691.12 478.68 L 692.75 484.86 L 694.16 491.12 L 695.35 497.45 L 696.33 503.83 L 697.08 510.26 L 697.60 516.74 L 697.90 523.24 L 697.97 529.78 L 697.81 536.34 L 697.42 542.90 L 696.79 549.47 L 695.93 556.03 L 694.84 562.57 L 693.51 569.10 L 691.95 575.59 L 690.16 582.04 L 688.14 588.45 L 685.89 594.80 L 683.40 601.08 L 680.69 607.29 L 677.76 613.42 L 674.60 619.46 L 671.22 625.41 L 667.62 631.25 L 663.81 636.97 L 659.79 642.58 L 655.56 648.05 L 651.13 653.39 L 646.50 658.59 L 641.68 663.63 L 636.67 668.51 L 631.47 673.23 L 626.10 677.78 L 620.56 682.15 L 614.85 686.33 L 608.98 690.32 L 602.95 694.11 L 596.78 697.70 L 590.47 701.08 L 584.02 704.25 L 577.46 707.19 L 570.77 709.91 L 563.97 712.40 L 557.07 714.65 L 550.08 716.67 L 543.00 718.45 L 535.84 719.98 L 528.61 721.26 L 521.32 722.29 L 513.98 723.06 L 506.60 723.58 L 499.19 723.84 L 491.75 723.84 L 484.29 723.57 L 476.83 723.05 L 469.37 722.26 L 461.92 721.20 L 454.50 719.88 L 447.11 718.30 L 439.75 716.45 L 432.45 714.35 L 425.21 711.98 L 418.03 709.35 L 410.94 706.46 L 403.93 703.32 L 397.02 699.92 L 390.21 696.27 L 383.52 692.38 L 376.95 688.25 L 370.51 683.87 L 364.22 679.26 L 358.07 674.42 L 352.09 669.36 L 346.27 664.07 L 340.62 658.57 L 335.16 652.86 L 329.89 646.94 L 324.81 640.83 L 319.95 634.53 L 315.29 628.05 L 310.85 621.39 L 306.64 614.56 L 302.66 607.57 L 298.92 600.43 L 295.42 593.14 L 292.17 585.72 L 289.18 578.16 L 286.45 570.49 L 283.98 562.71 L 281.78 554.83 L 279.86 546.85 L 278.21 538.80 L 276.84 530.67 L 275.76 522.47 L 274.96 514.23 L 274.45 505.94 L 274.23 497.62 L 274.30 489.27 L 274.66 480.92 L 275.32 472.56 L 276.28 464.21 L 277.53 455.87 L 279.07 447.57 L 280.91 439.31 L 283.05 431.10 L 285.47 422.94 L 288.19 414.86 L 291.19 406.86 L 294.48 398.95 L 298.06 391.15 L 301.92 383.45 L 306.05 375.88 L 310.45 368.44 L 315.13 361.14 L 320.07 354.00 L 325.27 347.01 L 330.72 340.20 L 336.42 333.57 L 342.36 327.12 L 348.54 320.88 L 354.95 314.84 L 361.59 309.01 L 368.43 303.41 L 375.49 298.04 L 382.75 292.91 L 390.20 288.02 L 397.83 283.39 L 405.64 279.02 L 413.61 274.92 L 421.74 271.09 L 430.02 267.54 L 438.44 264.27 L 446.98 261.30 L 455.65 258.62 L 464.42 256.24 L 473.29 254.16 L 482.25 252.39 L 491.28 250.94 L 500.38 249.80 L 509.53 248.97 L 518.72 248.47 L 527.95 248.29"
        stroke="url(#spiralStroke)"
        stroke-width="42"
        stroke-linecap="round"
        stroke-linejoin="round"
        fill="none"
        filter="url(#spiralGlow)"
        opacity="0.94"/>

  <!-- calm center -->
  <circle cx="512" cy="512" r="14" fill="#dfe6e8" opacity="0.86"/>
  <circle cx="512" cy="512" r="31" fill="none" stroke="#dfe6e8" stroke-width="2.5" opacity="0.16"/>
</svg>
