<?xml version="1.0" encoding="UTF-8"?>
<svg xmlns="http://www.w3.org/2000/svg" viewBox="0 0 1024 1024" width="1024" height="1024">
  <!-- Spiral Buddy icon: 옵시디언 보라 + 클로드 오렌지 + cyan 나선형 -->
  <defs>
    <linearGradient id="bg" x1="0%" y1="0%" x2="100%" y2="100%">
      <stop offset="0%" stop-color="#8b7ce0"/>
      <stop offset="42%" stop-color="#5d4eb8"/>
      <stop offset="100%" stop-color="#1e1342"/>
    </linearGradient>
    <radialGradient id="glow" cx="50%" cy="48%" r="60%">
      <stop offset="0%"  stop-color="#ffc99b" stop-opacity="0.55"/>
      <stop offset="35%" stop-color="#e88752" stop-opacity="0.32"/>
      <stop offset="70%" stop-color="#cc785c" stop-opacity="0.08"/>
      <stop offset="100%" stop-color="#cc785c" stop-opacity="0"/>
    </radialGradient>
    <linearGradient id="rim" x1="0%" y1="0%" x2="0%" y2="100%">
      <stop offset="0%"  stop-color="#ffffff" stop-opacity="0.22"/>
      <stop offset="40%" stop-color="#ffffff" stop-opacity="0"/>
    </linearGradient>
    <linearGradient id="spiralStroke" x1="20%" y1="0%" x2="80%" y2="100%">
      <stop offset="0%"   stop-color="#7ee2ff"/>
      <stop offset="35%"  stop-color="#ffffff"/>
      <stop offset="68%"  stop-color="#ffd4a8"/>
      <stop offset="100%" stop-color="#ff8a5b"/>
    </linearGradient>
    <filter id="spiralGlow" x="-15%" y="-15%" width="130%" height="130%">
      <feGaussianBlur in="SourceGraphic" stdDeviation="5" result="blur"/>
      <feMerge>
        <feMergeNode in="blur"/>
        <feMergeNode in="SourceGraphic"/>
      </feMerge>
    </filter>
  </defs>

  <!-- macOS squircle 근사 (rounded square) -->
  <rect x="0" y="0" width="1024" height="1024" rx="220" ry="220" fill="url(#bg)"/>
  <!-- 옵시디언 보석 림 라이트 -->
  <rect x="0" y="0" width="1024" height="1024" rx="220" ry="220" fill="url(#rim)"/>
  <!-- 클로드 오렌지 글로우 -->
  <circle cx="512" cy="500" r="450" fill="url(#glow)"/>

  <!-- 나선 (archimedean, 4.5턴) -->
  <path d="M 512.00 512.00 L 512.03 511.28 L 512.13 510.57 L 512.30 509.87 L 512.54 509.18 L 512.84 508.52 L 513.20 507.87 L 513.63 507.25 L 514.11 506.67 L 514.65 506.12 L 515.25 505.61 L 515.91 505.15 L 516.61 504.74 L 517.36 504.38 L 518.15 504.07 L 518.98 503.82 L 519.85 503.64 L 520.75 503.52 L 521.68 503.47 L 522.63 503.48 L 523.60 503.57 L 524.58 503.74 L 525.57 503.97 L 526.57 504.29 L 527.57 504.68 L 528.56 505.14 L 529.54 505.69 L 530.50 506.31 L 531.44 507.01 L 532.36 507.78 L 533.24 508.64 L 534.09 509.56 L 534.89 510.56 L 535.65 511.63 L 536.36 512.77 L 537.01 513.97 L 537.60 515.23 L 538.13 516.56 L 538.58 517.94 L 538.96 519.38 L 539.27 520.86 L 539.49 522.39 L 539.63 523.96 L 539.68 525.56 L 539.64 527.19 L 539.50 528.85 L 539.27 530.53 L 538.94 532.23 L 538.51 533.93 L 537.98 535.64 L 537.34 537.34 L 536.60 539.04 L 535.76 540.72 L 534.81 542.38 L 533.76 544.01 L 532.60 545.61 L 531.34 547.18 L 529.97 548.69 L 528.51 550.16 L 526.95 551.56 L 525.29 552.90 L 523.54 554.18 L 521.69 555.37 L 519.76 556.49 L 517.75 557.51 L 515.66 558.45 L 513.49 559.29 L 511.25 560.02 L 508.94 560.65 L 506.57 561.16 L 504.15 561.56 L 501.68 561.84 L 499.17 561.99 L 496.61 562.01 L 494.03 561.91 L 491.43 561.67 L 488.80 561.29 L 486.17 560.78 L 483.54 560.12 L 480.91 559.33 L 478.29 558.39 L 475.70 557.31 L 473.13 556.09 L 470.60 554.72 L 468.11 553.22 L 465.67 551.57 L 463.29 549.78 L 460.98 547.86 L 458.74 545.80 L 456.59 543.61 L 454.52 541.29 L 452.55 538.84 L 450.69 536.28 L 448.93 533.59 L 447.30 530.80 L 445.79 527.90 L 444.41 524.89 L 443.16 521.80 L 442.07 518.61 L 441.12 515.34 L 440.32 512.00 L 439.68 508.59 L 439.21 505.12 L 438.91 501.60 L 438.77 498.03 L 438.82 494.43 L 439.04 490.80 L 439.44 487.16 L 440.02 483.50 L 440.79 479.85 L 441.75 476.20 L 442.89 472.58 L 444.22 468.98 L 445.73 465.43 L 447.43 461.92 L 449.32 458.46 L 451.39 455.08 L 453.64 451.77 L 456.06 448.55 L 458.67 445.43 L 461.44 442.41 L 464.38 439.51 L 467.48 436.73 L 470.74 434.08 L 474.16 431.58 L 477.71 429.22 L 481.41 427.02 L 485.23 424.99 L 489.18 423.13 L 493.25 421.45 L 497.42 419.96 L 501.70 418.67 L 506.06 417.57 L 510.50 416.68 L 515.02 416.00 L 519.59 415.53 L 524.22 415.28 L 528.88 415.26 L 533.58 415.46 L 538.29 415.90 L 543.01 416.56 L 547.73 417.46 L 552.42 418.59 L 557.09 419.95 L 561.73 421.55 L 566.31 423.38 L 570.82 425.44 L 575.27 427.74 L 579.62 430.26 L 583.88 433.01 L 588.03 435.97 L 592.06 439.16 L 595.95 442.55 L 599.70 446.15 L 603.30 449.95 L 606.73 453.95 L 609.99 458.13 L 613.06 462.49 L 615.94 467.02 L 618.61 471.71 L 621.07 476.56 L 623.31 481.55 L 625.33 486.67 L 627.10 491.91 L 628.63 497.27 L 629.91 502.72 L 630.93 508.26 L 631.69 513.88 L 632.18 519.56 L 632.41 525.29 L 632.36 531.06 L 632.03 536.86 L 631.42 542.66 L 630.52 548.46 L 629.35 554.25 L 627.89 560.00 L 626.15 565.71 L 624.13 571.37 L 621.82 576.95 L 619.24 582.44 L 616.38 587.84 L 613.25 593.12 L 609.86 598.27 L 606.20 603.29 L 602.29 608.14 L 598.12 612.84 L 593.72 617.35 L 589.07 621.67 L 584.21 625.78 L 579.12 629.68 L 573.83 633.35 L 568.34 636.78 L 562.66 639.96 L 556.81 642.88 L 550.80 645.54 L 544.63 647.91 L 538.33 650.00 L 531.90 651.80 L 525.36 653.30 L 518.72 654.48 L 512.00 655.36 L 505.21 655.92 L 498.37 656.15 L 491.50 656.06 L 484.60 655.64 L 477.70 654.88 L 470.80 653.80 L 463.94 652.38 L 457.11 650.62 L 450.35 648.54 L 443.66 646.12 L 437.06 643.38 L 430.57 640.31 L 424.21 636.91 L 417.98 633.21 L 411.91 629.19 L 406.01 624.87 L 400.30 620.25 L 394.79 615.34 L 389.49 610.15 L 384.42 604.69 L 379.60 598.97 L 375.03 593.00 L 370.73 586.80 L 366.72 580.36 L 363.00 573.72 L 359.58 566.87 L 356.48 559.84 L 353.70 552.64 L 351.26 545.29 L 349.17 537.79 L 347.42 530.17 L 346.03 522.44 L 345.01 514.62 L 344.35 506.73 L 344.07 498.78 L 344.17 490.80 L 344.65 482.79 L 345.51 474.79 L 346.76 466.79 L 348.39 458.84 L 350.40 450.94 L 352.80 443.11 L 355.58 435.37 L 358.73 427.74 L 362.26 420.24 L 366.16 412.89 L 370.42 405.70 L 375.03 398.69 L 379.99 391.88 L 385.29 385.29 L 390.91 378.93 L 396.86 372.82 L 403.11 366.98 L 409.66 361.42 L 416.50 356.15 L 423.60 351.20 L 430.96 346.57 L 438.55 342.28 L 446.38 338.33 L 454.41 334.75 L 462.63 331.55 L 471.03 328.72 L 479.59 326.29 L 488.28 324.26 L 497.10 322.63 L 506.01 321.43 L 515.01 320.64 L 524.06 320.28 L 533.16 320.35 L 542.28 320.85 L 551.39 321.78 L 560.49 323.16 L 569.54 324.96 L 578.53 327.21 L 587.43 329.88 L 596.23 332.99 L 604.91 336.53 L 613.44 340.48 L 621.80 344.85 L 629.97 349.63 L 637.94 354.81 L 645.68 360.37 L 653.17 366.32 L 660.40 372.65 L 667.34 379.33 L 673.99 386.35 L 680.31 393.71 L 686.30 401.38 L 691.94 409.36 L 697.22 417.63 L 702.11 426.16 L 706.61 434.95 L 710.70 443.97 L 714.37 453.21 L 717.61 462.64 L 720.41 472.24 L 722.77 482.00 L 724.66 491.90 L 726.09 501.90 L 727.04 512.00 L 727.52 522.16 L 727.51 532.37 L 727.02 542.60 L 726.05 552.83 L 724.58 563.04 L 722.63 573.19 L 720.19 583.28 L 717.27 593.27 L 713.87 603.15 L 709.99 612.88 L 705.64 622.45 L 700.83 631.83 L 695.56 641.01 L 689.84 649.95 L 683.69 658.64 L 677.12 667.06 L 670.13 675.18 L 662.74 682.98 L 654.97 690.45 L 646.82 697.57 L 638.33 704.31 L 629.49 710.67 L 620.34 716.62 L 610.88 722.14 L 601.15 727.23 L 591.16 731.86 L 580.92 736.03 L 570.47 739.72 L 559.82 742.93 L 549.00 745.63 L 538.04 747.83 L 526.94 749.51 L 515.75 750.66 L 504.48 751.29 L 493.16 751.39 L 481.81 750.95 L 470.47 749.96 L 459.15 748.44 L 447.88 746.38 L 436.69 743.78 L 425.60 740.65 L 414.64 736.98 L 403.84 732.79 L 393.21 728.08 L 382.79 722.85 L 372.60 717.13 L 362.66 710.91 L 353.00 704.20 L 343.64 697.03 L 334.60 689.40 L 325.91 681.33 L 317.59 672.83 L 309.66 663.92 L 302.13 654.63 L 295.03 644.96 L 288.38 634.93 L 282.20 624.58 L 276.49 613.91 L 271.28 602.96 L 266.58 591.74 L 262.41 580.28 L 258.77 568.60 L 255.68 556.74 L 253.14 544.70 L 251.17 532.53 L 249.78 520.24 L 248.97 507.87 L 248.74 495.44 L 249.10 482.98 L 250.05 470.51 L 251.59 458.07 L 253.73 445.69 L 256.45 433.38 L 259.77 421.19 L 263.66 409.13 L 268.13 397.25 L 273.18 385.55 L 278.78 374.08 L 284.94 362.85 L 291.64 351.90 L 298.86 341.25 L 306.61 330.92 L 314.85 320.95 L 323.58 311.35 L 332.77 302.15 L 342.42 293.38 L 352.49 285.04 L 362.98 277.18 L 373.85 269.79 L 385.09 262.92 L 396.67 256.56 L 408.56 250.75 L 420.75 245.49 L 433.21 240.79 L 445.90 236.69 L 458.81 233.18 L 471.90 230.27 L 485.15 227.98 L 498.53 226.31 L 512.00 225.28 L 525.54 224.88 L 539.12 225.13 L 552.70 226.01 L 566.26 227.54 L 579.77 229.72 L 593.19 232.53 L 606.50 235.99 L 619.66 240.08 L 632.64 244.80 L 645.42 250.14 L 657.96 256.10 L 670.24 262.65 L 682.22 269.80 L 693.88 277.52 L 705.19 285.80 L 716.12 294.63 L 726.65 303.99 L 736.75 313.86 L 746.39 324.22 L 755.56 335.04 L 764.22 346.32 L 772.37 358.02 L 779.96 370.12 L 787.00 382.60 L 793.45 395.42 L 799.30 408.56 L 804.54 422.00 L 809.15 435.70 L 813.12 449.64 L 816.43 463.78 L 819.08 478.10 L 821.05 492.56 L 822.34 507.12 L 822.94 521.77 L 822.85 536.46 L 822.06 551.17 L 820.58 565.86 L 818.40 580.49 L 815.52 595.03 L 811.96 609.46 L 807.70 623.74 L 802.77 637.83 L 797.16 651.70 L 790.89 665.32 L 783.97 678.66 L 776.41 691.69 L 768.23 704.38 L 759.43 716.69 L 750.05 728.60 L 740.08 740.08 L 729.57 751.11 L 718.52 761.64 L 706.96 771.67 L 694.92 781.15 L 682.41 790.08 L 669.47 798.43 L 656.11 806.17 L 642.38 813.29 L 628.30 819.77 L 613.89 825.59 L 599.20 830.73 L 584.24 835.19 L 569.06 838.94 L 553.69 841.97 L 538.15 844.28 L 522.49 845.86 L 506.74 846.70 L 490.94 846.80 L 475.11 846.15 L 459.30 844.75 L 443.54 842.60 L 427.86 839.70 L 412.31 836.06 L 396.91 831.68 L 381.70 826.56 L 366.73 820.72 L 352.01 814.17 L 337.59 806.92 L 323.49 798.97 L 309.76 790.35 L 296.43 781.08 L 283.52 771.16 L 271.06 760.63 L 259.10 749.49 L 247.65 737.78 L 236.74 725.52 L 226.40 712.72 L 216.66 699.43 L 207.53 685.67 L 199.05 671.46 L 191.23 656.83 L 184.10 641.82 L 177.67 626.47 L 171.96 610.79 L 166.99 594.83 L 162.76 578.62 L 159.30 562.20 L 156.62 545.59 L 154.71 528.85 L 153.60 512.00 L 153.28 495.08 L 153.76 478.14 L 155.05 461.20 L 157.13 444.31 L 160.02 427.50 L 163.70 410.81 L 168.18 394.28 L 173.44 377.95 L 179.47 361.86 L 186.28 346.04 L 193.83 330.52 L 202.13 315.35 L 211.15 300.56 L 220.88 286.18 L 231.29 272.25 L 242.38 258.81 L 254.10 245.87 L 266.45 233.48 L 279.40 221.66 L 292.91 210.45 L 306.97 199.87 L 321.53 189.94 L 336.58 180.69 L 352.08 172.14 L 367.99 164.33 L 384.28 157.25 L 400.93 150.95 L 417.88 145.42 L 435.11 140.69 L 452.57 136.77 L 470.23 133.68 L 488.06 131.41 L 506.00 129.99 L 524.02 129.42 L 542.09 129.69 L 560.15 130.82 L 578.18 132.81 L 596.12 135.65 L 613.95 139.34 L 631.61 143.87 L 649.07 149.25 L 666.29 155.45 L 683.23 162.47 L 699.85 170.29 L 716.12 178.91 L 731.98 188.30 L 747.42 198.45 L 762.38 209.34 L 776.85 220.94 L 790.77 233.23 L 804.12 246.19 L 816.87 259.79 L 828.99 274.00 L 840.44 288.79 L 851.20 304.14 L 861.24 320.00 L 870.54 336.35 L 879.08 353.15 L 886.82 370.37 L 893.76 387.96 L 899.87 405.89 L 905.14 424.12 L 909.55 442.62 L 913.09 461.33 L 915.74 480.22 L 917.51 499.26 L 918.38 518.38 L 918.34 537.56 L 917.40 556.76 L 915.55 575.92 L 912.79 595.00 L 909.13 613.97 L 904.57 632.77 L 899.12 651.37 L 892.79 669.73 L 885.58 687.79 L 877.52 705.53 L 868.61 722.90 L 858.88 739.86 L 848.34 756.37 L 837.02 772.39 L 824.93 787.88 L 812.10 802.82 L 798.56 817.15 L 784.33 830.86 L 769.45 843.90 L 753.94 856.25 L 737.84 867.87 L 721.18 878.73 L 704.00 888.82 L 686.33 898.10 L 668.21 906.55 L 649.69 914.15 L 630.79 920.87 L 611.56 926.71 L 592.05 931.65 L 572.30 935.66 L 552.34 938.74 L 532.23 940.89 L 512.00 942.08"
        stroke="url(#spiralStroke)"
        stroke-width="58"
        stroke-linecap="round"
        stroke-linejoin="round"
        fill="none"
        filter="url(#spiralGlow)"/>

  <!-- 나선 중앙 강조 점 (작은 발광) -->
  <circle cx="512" cy="512" r="14" fill="#ffffff" opacity="0.85"/>
  <circle cx="512" cy="512" r="22" fill="none" stroke="#ffffff" stroke-width="2" opacity="0.4"/>
</svg>
